<mxfile host="Electron" agent="Mozilla/5.0 (Macintosh; Intel Mac OS X 10_15_7) AppleWebKit/537.36 (KHTML, like Gecko) draw.io/24.7.17 Chrome/128.0.6613.36 Electron/32.0.1 Safari/537.36" version="24.7.17">
  <diagram name="Page-1" id="o7d_l9rEFAbDWQx9tQcT">
    <mxGraphModel dx="1306" dy="894" grid="1" gridSize="10" guides="1" tooltips="1" connect="1" arrows="1" fold="1" page="1" pageScale="1" pageWidth="850" pageHeight="1100" math="1" shadow="0">
      <root>
        <mxCell id="0" />
        <mxCell id="1" parent="0" />
        <mxCell id="J0j3YyQvNYbfIpje-4Qz-81" value="" style="group" vertex="1" connectable="0" parent="1">
          <mxGeometry x="40" y="40" width="603" height="320.5" as="geometry" />
        </mxCell>
        <mxCell id="pZ9tJHDrhh_KwONNmrHl-76" value="&lt;font style=&quot;font-size: 16px;&quot;&gt;&lt;b&gt;(a)&lt;/b&gt;&lt;/font&gt;" style="text;html=1;align=center;verticalAlign=middle;whiteSpace=wrap;rounded=0;fontFamily=Helvetica;fontSize=11;fontColor=default;labelBackgroundColor=default;" parent="J0j3YyQvNYbfIpje-4Qz-81" vertex="1">
          <mxGeometry x="60" y="290.5" width="60" height="30" as="geometry" />
        </mxCell>
        <mxCell id="pZ9tJHDrhh_KwONNmrHl-77" value="&lt;font style=&quot;font-size: 16px;&quot;&gt;&lt;b&gt;(b)&lt;/b&gt;&lt;/font&gt;" style="text;html=1;align=center;verticalAlign=middle;whiteSpace=wrap;rounded=0;fontFamily=Helvetica;fontSize=11;fontColor=default;labelBackgroundColor=default;" parent="J0j3YyQvNYbfIpje-4Qz-81" vertex="1">
          <mxGeometry x="261.75" y="290.5" width="60" height="30" as="geometry" />
        </mxCell>
        <mxCell id="pZ9tJHDrhh_KwONNmrHl-78" value="&lt;font style=&quot;font-size: 16px;&quot;&gt;&lt;b&gt;(c)&lt;/b&gt;&lt;/font&gt;" style="text;html=1;align=center;verticalAlign=middle;whiteSpace=wrap;rounded=0;fontFamily=Helvetica;fontSize=11;fontColor=default;labelBackgroundColor=default;" parent="J0j3YyQvNYbfIpje-4Qz-81" vertex="1">
          <mxGeometry x="464" y="290.5" width="60" height="30" as="geometry" />
        </mxCell>
        <mxCell id="J0j3YyQvNYbfIpje-4Qz-69" value="" style="group" vertex="1" connectable="0" parent="J0j3YyQvNYbfIpje-4Qz-81">
          <mxGeometry x="385" width="218" height="230.5" as="geometry" />
        </mxCell>
        <mxCell id="J0j3YyQvNYbfIpje-4Qz-51" style="rounded=0;orthogonalLoop=1;jettySize=auto;html=1;exitX=1;exitY=1;exitDx=0;exitDy=0;endArrow=none;endFill=0;strokeWidth=2;entryX=0.5;entryY=0;entryDx=0;entryDy=0;" edge="1" parent="J0j3YyQvNYbfIpje-4Qz-69" source="J0j3YyQvNYbfIpje-4Qz-53" target="J0j3YyQvNYbfIpje-4Qz-56">
          <mxGeometry relative="1" as="geometry">
            <mxPoint x="180" y="120" as="targetPoint" />
          </mxGeometry>
        </mxCell>
        <mxCell id="J0j3YyQvNYbfIpje-4Qz-52" style="edgeStyle=none;shape=connector;rounded=0;orthogonalLoop=1;jettySize=auto;html=1;exitX=0;exitY=1;exitDx=0;exitDy=0;strokeColor=default;strokeWidth=2;align=center;verticalAlign=middle;fontFamily=Helvetica;fontSize=11;fontColor=default;labelBackgroundColor=default;endArrow=none;endFill=0;entryX=1;entryY=0.5;entryDx=0;entryDy=0;" edge="1" parent="J0j3YyQvNYbfIpje-4Qz-69" source="J0j3YyQvNYbfIpje-4Qz-53" target="J0j3YyQvNYbfIpje-4Qz-67">
          <mxGeometry relative="1" as="geometry">
            <mxPoint x="80" y="110" as="targetPoint" />
          </mxGeometry>
        </mxCell>
        <mxCell id="J0j3YyQvNYbfIpje-4Qz-53" value="-1" style="ellipse;whiteSpace=wrap;html=1;aspect=fixed;fillColor=#d5e8d4;strokeColor=#82b366;gradientColor=#97d077;strokeWidth=2;fontSize=14;" vertex="1" parent="J0j3YyQvNYbfIpje-4Qz-69">
          <mxGeometry x="110" y="71.5" width="40" height="40" as="geometry" />
        </mxCell>
        <mxCell id="J0j3YyQvNYbfIpje-4Qz-54" style="edgeStyle=none;shape=connector;rounded=0;orthogonalLoop=1;jettySize=auto;html=1;exitX=0;exitY=1;exitDx=0;exitDy=0;entryX=1;entryY=0.5;entryDx=0;entryDy=0;strokeColor=default;strokeWidth=2;align=center;verticalAlign=middle;fontFamily=Helvetica;fontSize=11;fontColor=default;labelBackgroundColor=default;endArrow=none;endFill=0;" edge="1" parent="J0j3YyQvNYbfIpje-4Qz-69" source="J0j3YyQvNYbfIpje-4Qz-56" target="J0j3YyQvNYbfIpje-4Qz-58">
          <mxGeometry relative="1" as="geometry" />
        </mxCell>
        <mxCell id="J0j3YyQvNYbfIpje-4Qz-55" style="edgeStyle=none;shape=connector;rounded=0;orthogonalLoop=1;jettySize=auto;html=1;exitX=1;exitY=1;exitDx=0;exitDy=0;entryX=1;entryY=0.5;entryDx=0;entryDy=0;strokeColor=default;strokeWidth=2;align=center;verticalAlign=middle;fontFamily=Helvetica;fontSize=11;fontColor=default;labelBackgroundColor=default;endArrow=none;endFill=0;" edge="1" parent="J0j3YyQvNYbfIpje-4Qz-69" source="J0j3YyQvNYbfIpje-4Qz-56" target="J0j3YyQvNYbfIpje-4Qz-59">
          <mxGeometry relative="1" as="geometry" />
        </mxCell>
        <mxCell id="J0j3YyQvNYbfIpje-4Qz-56" value="0" style="ellipse;whiteSpace=wrap;html=1;aspect=fixed;fillColor=#d5e8d4;strokeColor=#82b366;gradientColor=#97d077;strokeWidth=2;fontSize=14;" vertex="1" parent="J0j3YyQvNYbfIpje-4Qz-69">
          <mxGeometry x="159" y="131.5" width="40" height="40" as="geometry" />
        </mxCell>
        <mxCell id="J0j3YyQvNYbfIpje-4Qz-58" value="h&lt;div style=&quot;font-size: 14px;&quot;&gt;&lt;br style=&quot;font-size: 14px;&quot;&gt;&lt;/div&gt;" style="triangle;whiteSpace=wrap;html=1;fontFamily=Helvetica;fontSize=14;fontColor=default;labelBackgroundColor=none;rotation=-90;textDirection=vertical-lr;strokeWidth=2;" vertex="1" parent="J0j3YyQvNYbfIpje-4Qz-69">
          <mxGeometry x="130" y="191.5" width="39" height="39" as="geometry" />
        </mxCell>
        <mxCell id="J0j3YyQvNYbfIpje-4Qz-59" value="h&lt;div style=&quot;font-size: 14px;&quot;&gt;&lt;br style=&quot;font-size: 14px;&quot;&gt;&lt;/div&gt;" style="triangle;whiteSpace=wrap;html=1;fontFamily=Helvetica;fontSize=14;fontColor=default;labelBackgroundColor=none;rotation=-90;textDirection=vertical-lr;strokeWidth=2;" vertex="1" parent="J0j3YyQvNYbfIpje-4Qz-69">
          <mxGeometry x="189" y="191.5" width="39" height="39" as="geometry" />
        </mxCell>
        <mxCell id="J0j3YyQvNYbfIpje-4Qz-60" value="Q" style="text;html=1;align=center;verticalAlign=middle;whiteSpace=wrap;rounded=0;fontFamily=Times New Roman;fontSize=17;fontColor=default;labelBackgroundColor=default;fontStyle=3" vertex="1" parent="J0j3YyQvNYbfIpje-4Qz-69">
          <mxGeometry x="149" y="61.5" width="20" height="30" as="geometry" />
        </mxCell>
        <mxCell id="J0j3YyQvNYbfIpje-4Qz-61" value="P" style="text;html=1;align=center;verticalAlign=middle;whiteSpace=wrap;rounded=0;fontFamily=Times New Roman;fontSize=17;fontColor=default;labelBackgroundColor=default;fontStyle=3" vertex="1" parent="J0j3YyQvNYbfIpje-4Qz-69">
          <mxGeometry x="198.5" y="121.5" width="20" height="30" as="geometry" />
        </mxCell>
        <mxCell id="J0j3YyQvNYbfIpje-4Qz-62" style="edgeStyle=none;shape=connector;rounded=0;orthogonalLoop=1;jettySize=auto;html=1;exitX=0;exitY=1;exitDx=0;exitDy=0;strokeColor=#B3B3B3;strokeWidth=2;align=center;verticalAlign=middle;fontFamily=Helvetica;fontSize=11;fontColor=default;labelBackgroundColor=default;endArrow=none;endFill=0;entryX=0.25;entryY=0.25;entryDx=0;entryDy=0;entryPerimeter=0;" edge="1" parent="J0j3YyQvNYbfIpje-4Qz-69" source="J0j3YyQvNYbfIpje-4Qz-63" target="J0j3YyQvNYbfIpje-4Qz-64">
          <mxGeometry relative="1" as="geometry">
            <mxPoint x="41" y="44" as="targetPoint" />
          </mxGeometry>
        </mxCell>
        <mxCell id="J0j3YyQvNYbfIpje-4Qz-63" value="" style="ellipse;whiteSpace=wrap;html=1;aspect=fixed;fillColor=#f5f5f5;strokeColor=#B3B3B3;gradientColor=#b3b3b3;strokeWidth=2;fontSize=14;" vertex="1" parent="J0j3YyQvNYbfIpje-4Qz-69">
          <mxGeometry x="70" y="10" width="40" height="40" as="geometry" />
        </mxCell>
        <mxCell id="J0j3YyQvNYbfIpje-4Qz-64" value="" style="ellipse;shape=cloud;whiteSpace=wrap;html=1;fontFamily=Helvetica;fontSize=11;fontColor=#333333;labelBackgroundColor=default;dashed=1;dashPattern=1 2;strokeColor=#666666;fillColor=#f5f5f5;flipH=1;" vertex="1" parent="J0j3YyQvNYbfIpje-4Qz-69">
          <mxGeometry y="50" width="70" height="80" as="geometry" />
        </mxCell>
        <mxCell id="J0j3YyQvNYbfIpje-4Qz-65" style="edgeStyle=none;shape=connector;rounded=0;orthogonalLoop=1;jettySize=auto;html=1;exitX=1;exitY=1;exitDx=0;exitDy=0;strokeColor=#B3B3B3;strokeWidth=2;align=center;verticalAlign=middle;fontFamily=Helvetica;fontSize=11;fontColor=default;labelBackgroundColor=default;endArrow=none;endFill=0;entryX=0.5;entryY=0;entryDx=0;entryDy=0;" edge="1" parent="J0j3YyQvNYbfIpje-4Qz-69" source="J0j3YyQvNYbfIpje-4Qz-63" target="J0j3YyQvNYbfIpje-4Qz-53">
          <mxGeometry relative="1" as="geometry">
            <mxPoint x="141" y="40" as="targetPoint" />
          </mxGeometry>
        </mxCell>
        <mxCell id="J0j3YyQvNYbfIpje-4Qz-66" value="G" style="text;html=1;align=center;verticalAlign=middle;whiteSpace=wrap;rounded=0;fontFamily=Times New Roman;fontSize=17;fontColor=#000000;labelBackgroundColor=default;fontStyle=3;strokeColor=none;fillColor=none;" vertex="1" parent="J0j3YyQvNYbfIpje-4Qz-69">
          <mxGeometry x="51" width="20" height="30" as="geometry" />
        </mxCell>
        <mxCell id="J0j3YyQvNYbfIpje-4Qz-67" value="&lt;div style=&quot;font-size: 13px;&quot;&gt;h+1&lt;br&gt;&lt;br&gt;&lt;br&gt;&lt;br&gt;&lt;br&gt;&lt;br&gt;&lt;/div&gt;" style="triangle;whiteSpace=wrap;html=1;fontFamily=Helvetica;fontSize=14;labelBackgroundColor=none;rotation=-90;textDirection=vertical-lr;strokeWidth=2;" vertex="1" parent="J0j3YyQvNYbfIpje-4Qz-69">
          <mxGeometry x="20" y="150" width="101" height="60" as="geometry" />
        </mxCell>
        <mxCell id="J0j3YyQvNYbfIpje-4Qz-73" value="" style="group" vertex="1" connectable="0" parent="J0j3YyQvNYbfIpje-4Qz-81">
          <mxGeometry width="180" height="230.5" as="geometry" />
        </mxCell>
        <mxCell id="pZ9tJHDrhh_KwONNmrHl-138" style="rounded=0;orthogonalLoop=1;jettySize=auto;html=1;exitX=1;exitY=1;exitDx=0;exitDy=0;endArrow=none;endFill=0;strokeWidth=2;entryX=1;entryY=0.5;entryDx=0;entryDy=0;" parent="J0j3YyQvNYbfIpje-4Qz-73" source="pZ9tJHDrhh_KwONNmrHl-140" target="pZ9tJHDrhh_KwONNmrHl-144" edge="1">
          <mxGeometry relative="1" as="geometry">
            <mxPoint x="101" y="121.5" as="targetPoint" />
          </mxGeometry>
        </mxCell>
        <mxCell id="pZ9tJHDrhh_KwONNmrHl-139" style="edgeStyle=none;shape=connector;rounded=0;orthogonalLoop=1;jettySize=auto;html=1;exitX=0;exitY=1;exitDx=0;exitDy=0;strokeColor=default;strokeWidth=2;align=center;verticalAlign=middle;fontFamily=Helvetica;fontSize=11;fontColor=default;labelBackgroundColor=default;endArrow=none;endFill=0;entryX=0.5;entryY=0;entryDx=0;entryDy=0;" parent="J0j3YyQvNYbfIpje-4Qz-73" source="pZ9tJHDrhh_KwONNmrHl-140" target="pZ9tJHDrhh_KwONNmrHl-143" edge="1">
          <mxGeometry relative="1" as="geometry">
            <mxPoint x="31" y="111.5" as="targetPoint" />
          </mxGeometry>
        </mxCell>
        <mxCell id="pZ9tJHDrhh_KwONNmrHl-140" value="-1" style="ellipse;whiteSpace=wrap;html=1;aspect=fixed;fillColor=#d5e8d4;strokeColor=#82b366;gradientColor=#97d077;strokeWidth=2;fontSize=14;" parent="J0j3YyQvNYbfIpje-4Qz-73" vertex="1">
          <mxGeometry x="111" y="71.5" width="40" height="40" as="geometry" />
        </mxCell>
        <mxCell id="pZ9tJHDrhh_KwONNmrHl-141" style="edgeStyle=none;shape=connector;rounded=0;orthogonalLoop=1;jettySize=auto;html=1;exitX=0;exitY=1;exitDx=0;exitDy=0;entryX=1;entryY=0.5;entryDx=0;entryDy=0;strokeColor=default;strokeWidth=2;align=center;verticalAlign=middle;fontFamily=Helvetica;fontSize=11;fontColor=default;labelBackgroundColor=default;endArrow=none;endFill=0;" parent="J0j3YyQvNYbfIpje-4Qz-73" source="pZ9tJHDrhh_KwONNmrHl-143" target="pZ9tJHDrhh_KwONNmrHl-145" edge="1">
          <mxGeometry relative="1" as="geometry" />
        </mxCell>
        <mxCell id="pZ9tJHDrhh_KwONNmrHl-142" style="edgeStyle=none;shape=connector;rounded=0;orthogonalLoop=1;jettySize=auto;html=1;exitX=1;exitY=1;exitDx=0;exitDy=0;entryX=1;entryY=0.5;entryDx=0;entryDy=0;strokeColor=default;strokeWidth=2;align=center;verticalAlign=middle;fontFamily=Helvetica;fontSize=11;fontColor=default;labelBackgroundColor=default;endArrow=none;endFill=0;" parent="J0j3YyQvNYbfIpje-4Qz-73" source="pZ9tJHDrhh_KwONNmrHl-143" target="pZ9tJHDrhh_KwONNmrHl-146" edge="1">
          <mxGeometry relative="1" as="geometry" />
        </mxCell>
        <mxCell id="pZ9tJHDrhh_KwONNmrHl-143" value="0" style="ellipse;whiteSpace=wrap;html=1;aspect=fixed;fillColor=#d5e8d4;strokeColor=#82b366;gradientColor=#97d077;strokeWidth=2;fontSize=14;" parent="J0j3YyQvNYbfIpje-4Qz-73" vertex="1">
          <mxGeometry x="81" y="131.5" width="40" height="40" as="geometry" />
        </mxCell>
        <mxCell id="pZ9tJHDrhh_KwONNmrHl-144" value="h&lt;div style=&quot;font-size: 14px;&quot;&gt;&lt;br style=&quot;font-size: 14px;&quot;&gt;&lt;/div&gt;" style="triangle;whiteSpace=wrap;html=1;fontFamily=Helvetica;fontSize=14;fontColor=default;labelBackgroundColor=none;rotation=-90;textDirection=vertical-lr;strokeWidth=2;" parent="J0j3YyQvNYbfIpje-4Qz-73" vertex="1">
          <mxGeometry x="141" y="131.5" width="39" height="39" as="geometry" />
        </mxCell>
        <mxCell id="pZ9tJHDrhh_KwONNmrHl-145" value="h&lt;div style=&quot;font-size: 14px;&quot;&gt;&lt;br style=&quot;font-size: 14px;&quot;&gt;&lt;/div&gt;" style="triangle;whiteSpace=wrap;html=1;fontFamily=Helvetica;fontSize=14;fontColor=default;labelBackgroundColor=none;rotation=-90;textDirection=vertical-lr;strokeWidth=2;" parent="J0j3YyQvNYbfIpje-4Qz-73" vertex="1">
          <mxGeometry x="52" y="191.5" width="39" height="39" as="geometry" />
        </mxCell>
        <mxCell id="pZ9tJHDrhh_KwONNmrHl-146" value="h&lt;div style=&quot;font-size: 14px;&quot;&gt;&lt;br style=&quot;font-size: 14px;&quot;&gt;&lt;/div&gt;" style="triangle;whiteSpace=wrap;html=1;fontFamily=Helvetica;fontSize=14;fontColor=default;labelBackgroundColor=none;rotation=-90;textDirection=vertical-lr;strokeWidth=2;" parent="J0j3YyQvNYbfIpje-4Qz-73" vertex="1">
          <mxGeometry x="111" y="191.5" width="39" height="39" as="geometry" />
        </mxCell>
        <mxCell id="pZ9tJHDrhh_KwONNmrHl-147" value="P" style="text;html=1;align=center;verticalAlign=middle;whiteSpace=wrap;rounded=0;fontFamily=Times New Roman;fontSize=17;fontColor=default;labelBackgroundColor=default;fontStyle=3" parent="J0j3YyQvNYbfIpje-4Qz-73" vertex="1">
          <mxGeometry x="151" y="60" width="20" height="30" as="geometry" />
        </mxCell>
        <mxCell id="pZ9tJHDrhh_KwONNmrHl-148" value="Q" style="text;html=1;align=center;verticalAlign=middle;whiteSpace=wrap;rounded=0;fontFamily=Times New Roman;fontSize=17;fontColor=default;labelBackgroundColor=default;fontStyle=3" parent="J0j3YyQvNYbfIpje-4Qz-73" vertex="1">
          <mxGeometry x="61.5" y="121.5" width="20" height="30" as="geometry" />
        </mxCell>
        <mxCell id="pZ9tJHDrhh_KwONNmrHl-149" style="edgeStyle=none;shape=connector;rounded=0;orthogonalLoop=1;jettySize=auto;html=1;exitX=0;exitY=1;exitDx=0;exitDy=0;strokeColor=#B3B3B3;strokeWidth=2;align=center;verticalAlign=middle;fontFamily=Helvetica;fontSize=11;fontColor=default;labelBackgroundColor=default;endArrow=none;endFill=0;entryX=0.25;entryY=0.25;entryDx=0;entryDy=0;entryPerimeter=0;" parent="J0j3YyQvNYbfIpje-4Qz-73" source="pZ9tJHDrhh_KwONNmrHl-150" target="pZ9tJHDrhh_KwONNmrHl-151" edge="1">
          <mxGeometry relative="1" as="geometry">
            <mxPoint x="41" y="44" as="targetPoint" />
          </mxGeometry>
        </mxCell>
        <mxCell id="pZ9tJHDrhh_KwONNmrHl-150" value="" style="ellipse;whiteSpace=wrap;html=1;aspect=fixed;fillColor=#f5f5f5;strokeColor=#B3B3B3;gradientColor=#b3b3b3;strokeWidth=2;fontSize=14;" parent="J0j3YyQvNYbfIpje-4Qz-73" vertex="1">
          <mxGeometry x="70" y="10" width="40" height="40" as="geometry" />
        </mxCell>
        <mxCell id="pZ9tJHDrhh_KwONNmrHl-151" value="" style="ellipse;shape=cloud;whiteSpace=wrap;html=1;fontFamily=Helvetica;fontSize=11;fontColor=#333333;labelBackgroundColor=default;dashed=1;dashPattern=1 2;strokeColor=#666666;fillColor=#f5f5f5;flipH=1;" parent="J0j3YyQvNYbfIpje-4Qz-73" vertex="1">
          <mxGeometry y="50" width="70" height="80" as="geometry" />
        </mxCell>
        <mxCell id="pZ9tJHDrhh_KwONNmrHl-152" style="edgeStyle=none;shape=connector;rounded=0;orthogonalLoop=1;jettySize=auto;html=1;exitX=1;exitY=1;exitDx=0;exitDy=0;strokeColor=#B3B3B3;strokeWidth=2;align=center;verticalAlign=middle;fontFamily=Helvetica;fontSize=11;fontColor=default;labelBackgroundColor=default;endArrow=none;endFill=0;entryX=0.5;entryY=0;entryDx=0;entryDy=0;" parent="J0j3YyQvNYbfIpje-4Qz-73" source="pZ9tJHDrhh_KwONNmrHl-150" target="pZ9tJHDrhh_KwONNmrHl-140" edge="1">
          <mxGeometry relative="1" as="geometry">
            <mxPoint x="141" y="40" as="targetPoint" />
          </mxGeometry>
        </mxCell>
        <mxCell id="pZ9tJHDrhh_KwONNmrHl-153" value="G" style="text;html=1;align=center;verticalAlign=middle;whiteSpace=wrap;rounded=0;fontFamily=Times New Roman;fontSize=17;fontColor=#000000;labelBackgroundColor=default;fontStyle=3;strokeColor=none;fillColor=none;" parent="J0j3YyQvNYbfIpje-4Qz-73" vertex="1">
          <mxGeometry x="51" width="20" height="30" as="geometry" />
        </mxCell>
        <mxCell id="J0j3YyQvNYbfIpje-4Qz-80" value="" style="group" vertex="1" connectable="0" parent="J0j3YyQvNYbfIpje-4Qz-81">
          <mxGeometry x="202" width="179.5" height="310" as="geometry" />
        </mxCell>
        <mxCell id="J0j3YyQvNYbfIpje-4Qz-30" value="&lt;div style=&quot;font-size: 13px;&quot;&gt;h+1&lt;br&gt;&lt;br&gt;&lt;br&gt;&lt;br&gt;&lt;br&gt;&lt;br&gt;&lt;/div&gt;" style="triangle;whiteSpace=wrap;html=1;fontFamily=Helvetica;fontSize=14;labelBackgroundColor=none;rotation=-90;textDirection=vertical-lr;strokeWidth=2;fillColor=#dae8fc;gradientColor=#7ea6e0;strokeColor=#6c8ebf;" vertex="1" parent="J0j3YyQvNYbfIpje-4Qz-80">
          <mxGeometry x="10" y="210" width="101" height="60" as="geometry" />
        </mxCell>
        <mxCell id="J0j3YyQvNYbfIpje-4Qz-33" style="rounded=0;orthogonalLoop=1;jettySize=auto;html=1;exitX=1;exitY=1;exitDx=0;exitDy=0;endArrow=none;endFill=0;strokeWidth=2;entryX=1;entryY=0.5;entryDx=0;entryDy=0;" edge="1" parent="J0j3YyQvNYbfIpje-4Qz-80" source="J0j3YyQvNYbfIpje-4Qz-35" target="J0j3YyQvNYbfIpje-4Qz-39">
          <mxGeometry relative="1" as="geometry">
            <mxPoint x="130" y="120" as="targetPoint" />
          </mxGeometry>
        </mxCell>
        <mxCell id="J0j3YyQvNYbfIpje-4Qz-34" style="edgeStyle=none;shape=connector;rounded=0;orthogonalLoop=1;jettySize=auto;html=1;exitX=0;exitY=1;exitDx=0;exitDy=0;strokeColor=default;strokeWidth=2;align=center;verticalAlign=middle;fontFamily=Helvetica;fontSize=11;fontColor=default;labelBackgroundColor=default;endArrow=none;endFill=0;entryX=0.5;entryY=0;entryDx=0;entryDy=0;" edge="1" parent="J0j3YyQvNYbfIpje-4Qz-80" source="J0j3YyQvNYbfIpje-4Qz-35" target="J0j3YyQvNYbfIpje-4Qz-38">
          <mxGeometry relative="1" as="geometry">
            <mxPoint x="60" y="110" as="targetPoint" />
          </mxGeometry>
        </mxCell>
        <mxCell id="J0j3YyQvNYbfIpje-4Qz-35" value="-2" style="ellipse;whiteSpace=wrap;html=1;aspect=fixed;fillColor=#f8cecc;strokeColor=#b85450;gradientColor=#ea6b66;strokeWidth=2;fontSize=14;" vertex="1" parent="J0j3YyQvNYbfIpje-4Qz-80">
          <mxGeometry x="110.5" y="70" width="40" height="40" as="geometry" />
        </mxCell>
        <mxCell id="J0j3YyQvNYbfIpje-4Qz-36" style="edgeStyle=none;shape=connector;rounded=0;orthogonalLoop=1;jettySize=auto;html=1;exitX=0;exitY=1;exitDx=0;exitDy=0;strokeColor=default;strokeWidth=2;align=center;verticalAlign=middle;fontFamily=Helvetica;fontSize=11;fontColor=default;labelBackgroundColor=default;endArrow=none;endFill=0;entryX=1;entryY=0.5;entryDx=0;entryDy=0;" edge="1" parent="J0j3YyQvNYbfIpje-4Qz-80" source="J0j3YyQvNYbfIpje-4Qz-38" target="J0j3YyQvNYbfIpje-4Qz-30">
          <mxGeometry relative="1" as="geometry">
            <mxPoint x="90" y="170" as="targetPoint" />
          </mxGeometry>
        </mxCell>
        <mxCell id="J0j3YyQvNYbfIpje-4Qz-37" style="edgeStyle=none;shape=connector;rounded=0;orthogonalLoop=1;jettySize=auto;html=1;exitX=1;exitY=1;exitDx=0;exitDy=0;entryX=1;entryY=0.5;entryDx=0;entryDy=0;strokeColor=default;strokeWidth=2;align=center;verticalAlign=middle;fontFamily=Helvetica;fontSize=11;fontColor=default;labelBackgroundColor=default;endArrow=none;endFill=0;" edge="1" parent="J0j3YyQvNYbfIpje-4Qz-80" source="J0j3YyQvNYbfIpje-4Qz-38" target="J0j3YyQvNYbfIpje-4Qz-41">
          <mxGeometry relative="1" as="geometry" />
        </mxCell>
        <mxCell id="J0j3YyQvNYbfIpje-4Qz-38" value="-1" style="ellipse;whiteSpace=wrap;html=1;aspect=fixed;fillColor=#fff2cc;strokeColor=#d6b656;gradientColor=#ffd966;strokeWidth=2;fontSize=14;" vertex="1" parent="J0j3YyQvNYbfIpje-4Qz-80">
          <mxGeometry x="80.5" y="130" width="40" height="40" as="geometry" />
        </mxCell>
        <mxCell id="J0j3YyQvNYbfIpje-4Qz-39" value="h&lt;div style=&quot;font-size: 14px;&quot;&gt;&lt;br style=&quot;font-size: 14px;&quot;&gt;&lt;/div&gt;" style="triangle;whiteSpace=wrap;html=1;fontFamily=Helvetica;fontSize=14;fontColor=default;labelBackgroundColor=none;rotation=-90;textDirection=vertical-lr;strokeWidth=2;" vertex="1" parent="J0j3YyQvNYbfIpje-4Qz-80">
          <mxGeometry x="140.5" y="130" width="39" height="39" as="geometry" />
        </mxCell>
        <mxCell id="J0j3YyQvNYbfIpje-4Qz-41" value="h&lt;div style=&quot;font-size: 14px;&quot;&gt;&lt;br style=&quot;font-size: 14px;&quot;&gt;&lt;/div&gt;" style="triangle;whiteSpace=wrap;html=1;fontFamily=Helvetica;fontSize=14;fontColor=default;labelBackgroundColor=none;rotation=-90;textDirection=vertical-lr;strokeWidth=2;" vertex="1" parent="J0j3YyQvNYbfIpje-4Qz-80">
          <mxGeometry x="110.5" y="190" width="39" height="39" as="geometry" />
        </mxCell>
        <mxCell id="J0j3YyQvNYbfIpje-4Qz-42" value="P" style="text;html=1;align=center;verticalAlign=middle;whiteSpace=wrap;rounded=0;fontFamily=Times New Roman;fontSize=17;fontColor=default;labelBackgroundColor=default;fontStyle=3" vertex="1" parent="J0j3YyQvNYbfIpje-4Qz-80">
          <mxGeometry x="150.5" y="60" width="20" height="30" as="geometry" />
        </mxCell>
        <mxCell id="J0j3YyQvNYbfIpje-4Qz-43" value="Q" style="text;html=1;align=center;verticalAlign=middle;whiteSpace=wrap;rounded=0;fontFamily=Times New Roman;fontSize=17;fontColor=default;labelBackgroundColor=default;fontStyle=3" vertex="1" parent="J0j3YyQvNYbfIpje-4Qz-80">
          <mxGeometry x="61" y="120" width="20" height="30" as="geometry" />
        </mxCell>
        <mxCell id="J0j3YyQvNYbfIpje-4Qz-44" style="edgeStyle=none;shape=connector;rounded=0;orthogonalLoop=1;jettySize=auto;html=1;exitX=0;exitY=1;exitDx=0;exitDy=0;strokeColor=#B3B3B3;strokeWidth=2;align=center;verticalAlign=middle;fontFamily=Helvetica;fontSize=11;fontColor=default;labelBackgroundColor=default;endArrow=none;endFill=0;entryX=0.25;entryY=0.25;entryDx=0;entryDy=0;entryPerimeter=0;" edge="1" parent="J0j3YyQvNYbfIpje-4Qz-80" source="J0j3YyQvNYbfIpje-4Qz-45" target="J0j3YyQvNYbfIpje-4Qz-46">
          <mxGeometry relative="1" as="geometry">
            <mxPoint x="41" y="44" as="targetPoint" />
          </mxGeometry>
        </mxCell>
        <mxCell id="J0j3YyQvNYbfIpje-4Qz-45" value="" style="ellipse;whiteSpace=wrap;html=1;aspect=fixed;fillColor=#f5f5f5;strokeColor=#B3B3B3;gradientColor=#b3b3b3;strokeWidth=2;fontSize=14;" vertex="1" parent="J0j3YyQvNYbfIpje-4Qz-80">
          <mxGeometry x="70" y="10" width="40" height="40" as="geometry" />
        </mxCell>
        <mxCell id="J0j3YyQvNYbfIpje-4Qz-46" value="" style="ellipse;shape=cloud;whiteSpace=wrap;html=1;fontFamily=Helvetica;fontSize=11;fontColor=#333333;labelBackgroundColor=default;dashed=1;dashPattern=1 2;strokeColor=#666666;fillColor=#f5f5f5;flipH=1;" vertex="1" parent="J0j3YyQvNYbfIpje-4Qz-80">
          <mxGeometry y="50" width="70" height="80" as="geometry" />
        </mxCell>
        <mxCell id="J0j3YyQvNYbfIpje-4Qz-47" style="edgeStyle=none;shape=connector;rounded=0;orthogonalLoop=1;jettySize=auto;html=1;exitX=1;exitY=1;exitDx=0;exitDy=0;strokeColor=#B3B3B3;strokeWidth=2;align=center;verticalAlign=middle;fontFamily=Helvetica;fontSize=11;fontColor=default;labelBackgroundColor=default;endArrow=none;endFill=0;entryX=0.5;entryY=0;entryDx=0;entryDy=0;" edge="1" parent="J0j3YyQvNYbfIpje-4Qz-80" source="J0j3YyQvNYbfIpje-4Qz-45" target="J0j3YyQvNYbfIpje-4Qz-35">
          <mxGeometry relative="1" as="geometry">
            <mxPoint x="141" y="40" as="targetPoint" />
          </mxGeometry>
        </mxCell>
        <mxCell id="J0j3YyQvNYbfIpje-4Qz-48" value="G" style="text;html=1;align=center;verticalAlign=middle;whiteSpace=wrap;rounded=0;fontFamily=Times New Roman;fontSize=17;fontColor=#000000;labelBackgroundColor=default;fontStyle=3;strokeColor=none;fillColor=none;" vertex="1" parent="J0j3YyQvNYbfIpje-4Qz-80">
          <mxGeometry x="51" width="20" height="30" as="geometry" />
        </mxCell>
        <mxCell id="J0j3YyQvNYbfIpje-4Qz-76" value="" style="shape=flexArrow;endArrow=classic;html=1;rounded=0;fillColor=#ffcccc;strokeColor=none;opacity=50;" edge="1" parent="J0j3YyQvNYbfIpje-4Qz-80">
          <mxGeometry width="50" height="50" relative="1" as="geometry">
            <mxPoint x="158" y="40" as="sourcePoint" />
            <mxPoint x="8" y="310" as="targetPoint" />
          </mxGeometry>
        </mxCell>
      </root>
    </mxGraphModel>
  </diagram>
</mxfile>
